<?xml version="1.0" encoding="utf-8"?>
<!-- Generator: Adobe Illustrator 27.6.1, SVG Export Plug-In . SVG Version: 6.00 Build 0)  -->
<svg version="1.1" id="Capa_1" xmlns="http://www.w3.org/2000/svg" xmlns:xlink="http://www.w3.org/1999/xlink" x="0px" y="0px"
	 viewBox="0 0 1080 540" enable-background="new 0 0 1080 540" xml:space="preserve">
<g>
	<g>
		<path fill="#FFFFFF" d="M455.6,293.5l-10.53-17.99h-11.09v17.99h-6.24V246.5h18.8c4.03,0,7.47,1.42,10.34,4.26
			c2.86,2.84,4.3,6.28,4.3,10.31c0,3.04-0.91,5.82-2.72,8.32c-1.81,2.51-4.15,4.27-7.02,5.3l11.08,18.8H455.6z M433.98,252.34v17.52
			h12.55c2.33,0,4.31-0.86,5.94-2.58c1.63-1.72,2.45-3.79,2.45-6.21c0-2.42-0.82-4.48-2.45-6.18c-1.63-1.7-3.61-2.55-5.94-2.55
			H433.98z"/>
		<path fill="#FFFFFF" d="M494.45,289.2c-3.32,3.31-7.36,4.96-12.12,4.96c-4.76,0-8.8-1.65-12.1-4.96
			c-3.31-3.3-4.96-7.35-4.96-12.15c0-4.79,1.65-8.84,4.96-12.15c3.3-3.31,7.34-4.96,12.1-4.96c4.76,0,8.8,1.65,12.12,4.96
			c3.32,3.31,4.98,7.35,4.98,12.15C499.44,281.84,497.78,285.89,494.45,289.2z M474.76,284.78c2.04,2.02,4.56,3.03,7.57,3.03
			c3.01,0,5.53-1.01,7.57-3.03c2.04-2.02,3.05-4.6,3.05-7.73c0-3.13-1.02-5.72-3.05-7.75c-2.04-2.04-4.56-3.05-7.57-3.05
			c-3.01,0-5.53,1.02-7.57,3.05c-2.04,2.04-3.05,4.62-3.05,7.75C471.71,280.18,472.73,282.76,474.76,284.78z"/>
		<path fill="#FFFFFF" d="M510.95,287.29h12.55v6.2h-19.03v-32.9h6.49V287.29z"/>
		<path fill="#FFFFFF" d="M534.12,287.29h12.55v6.2h-19.03v-32.9h6.49V287.29z"/>
		<path fill="#FFFFFF" d="M550.8,260.6h6.48v32.9h-6.48V260.6z"/>
		<path fill="#FFFFFF" d="M582.89,260.6h6.48v32.9h-4.93l-14.1-20.11v20.11h-6.49v-32.9h4.93l14.1,20.04V260.6z"/>
		<path fill="#FFFFFF" d="M628.24,275.83v2.54c0,4.7-1.5,8.51-4.51,11.42c-3.01,2.91-6.89,4.37-11.65,4.37
			c-5.08,0-9.28-1.65-12.62-4.96c-3.34-3.3-5-7.34-5-12.1c0-4.79,1.65-8.85,4.96-12.17c3.3-3.32,7.4-4.98,12.29-4.98
			c3.07,0,5.87,0.7,8.41,2.09c2.54,1.39,4.51,3.25,5.92,5.57l-5.55,3.2c-0.78-1.35-1.97-2.44-3.55-3.29
			c-1.58-0.85-3.34-1.27-5.29-1.27c-3.13,0-5.71,1.03-7.73,3.08c-2.02,2.05-3.03,4.64-3.03,7.78c0,3.1,1.03,5.66,3.08,7.68
			c2.05,2.02,4.77,3.03,8.15,3.03c2.51,0,4.58-0.56,6.23-1.67c1.64-1.11,2.76-2.64,3.36-4.58h-9.96v-5.73H628.24z"/>
		<path fill="#FFFFFF" d="M657.39,294.37c-7.12,0-12.99-2.35-17.62-7.05c-4.63-4.7-6.95-10.47-6.95-17.32
			c0-6.85,2.32-12.62,6.95-17.32c4.63-4.7,10.51-7.05,17.62-7.05c4.3,0,8.25,1.03,11.85,3.09c3.6,2.06,6.41,4.83,8.43,8.32
			l-5.44,3.16c-1.34-2.59-3.35-4.67-6.01-6.21c-2.66-1.54-5.61-2.32-8.83-2.32c-5.42,0-9.84,1.75-13.26,5.24
			c-3.42,3.49-5.14,7.85-5.14,13.09c0,5.19,1.71,9.53,5.14,13.02c3.42,3.49,7.84,5.24,13.26,5.24c3.22,0,6.16-0.77,8.83-2.32
			c2.66-1.54,4.67-3.59,6.01-6.14l5.44,3.09c-1.97,3.49-4.77,6.28-8.39,8.36C665.64,293.33,661.68,294.37,657.39,294.37z"/>
		<path fill="#FFFFFF" d="M711.28,289.2c-3.32,3.31-7.36,4.96-12.12,4.96c-4.76,0-8.8-1.65-12.1-4.96
			c-3.31-3.3-4.96-7.35-4.96-12.15c0-4.79,1.65-8.84,4.96-12.15c3.3-3.31,7.34-4.96,12.1-4.96c4.76,0,8.8,1.65,12.12,4.96
			c3.32,3.31,4.98,7.35,4.98,12.15C716.26,281.84,714.6,285.89,711.28,289.2z M691.59,284.78c2.04,2.02,4.56,3.03,7.57,3.03
			s5.53-1.01,7.57-3.03c2.04-2.02,3.05-4.6,3.05-7.73c0-3.13-1.02-5.72-3.05-7.75c-2.04-2.04-4.56-3.05-7.57-3.05
			s-5.53,1.02-7.57,3.05c-2.04,2.04-3.05,4.62-3.05,7.75C688.53,280.18,689.55,282.76,691.59,284.78z"/>
		<path fill="#FFFFFF" d="M734.35,260.6c4.51,0,8.28,1.58,11.3,4.75c3.02,3.16,4.53,7.07,4.53,11.7c0,4.64-1.51,8.54-4.53,11.7
			c-3.02,3.16-6.79,4.75-11.3,4.75h-13.06v-32.9H734.35z M734.35,287.29c2.85,0,5.17-0.95,6.96-2.84c1.79-1.9,2.68-4.36,2.68-7.4
			c0-3.04-0.89-5.51-2.68-7.4c-1.79-1.9-4.1-2.84-6.96-2.84h-6.58v20.49H734.35z"/>
		<path fill="#FFFFFF" d="M761.75,287.29h13.86v6.2h-20.35v-32.9h20.11v6.2h-13.63v7h12.45v6.11h-12.45V287.29z"/>
	</g>
	<g>
		<g>
			<g>
				<polygon fill="#FFFFFF" points="349.81,250.34 318.28,265 318.28,265.01 318.28,274.99 318.28,275 349.81,289.66 349.81,279.66 
					329.01,270 349.81,260.34 				"/>
				<polygon fill="#FFFFFF" points="360.17,250.34 360.17,260.34 380.96,270 360.17,279.66 360.17,289.66 391.7,275 391.7,274.99 
					391.7,265.01 391.7,265 				"/>
			</g>
		</g>
		<path fill="#FFFFFF" d="M354.99,225.32c24.68,0,44.68,20,44.68,44.68s-20,44.68-44.68,44.68c-24.68,0-44.68-20-44.68-44.68
			S330.31,225.32,354.99,225.32 M354.99,219.4c-27.9,0-50.6,22.7-50.6,50.6s22.7,50.6,50.6,50.6s50.6-22.7,50.6-50.6
			S382.89,219.4,354.99,219.4L354.99,219.4z"/>
	</g>
	<g>
		<g>
			<path fill="#FFFFFF" d="M717.48,318.44h8.71v1.8h-10.61v-19.05h1.91V318.44z"/>
			<path fill="#FFFFFF" d="M742.14,320.24l-1.77-4.68h-9.04l-1.77,4.68h-2.01l7.32-19.05h1.96l7.32,19.05H742.14z M732.01,313.76
				h7.69l-3.84-10.19L732.01,313.76z"/>
			<path fill="#FFFFFF" d="M757.16,310.36c0.93,0.4,1.66,1,2.22,1.81s0.83,1.73,0.83,2.76c0,1.47-0.52,2.72-1.55,3.76
				s-2.29,1.55-3.76,1.55h-8.3v-19.05h7.67c1.42,0,2.62,0.5,3.62,1.51c1,1.01,1.5,2.21,1.5,3.61
				C759.39,308.08,758.65,309.43,757.16,310.36z M754.28,302.98h-5.77v6.64h5.77c0.89,0,1.65-0.32,2.27-0.97
				c0.63-0.64,0.94-1.43,0.94-2.35c0-0.91-0.31-1.69-0.94-2.34S755.17,302.98,754.28,302.98z M754.9,318.44
				c0.94,0,1.75-0.34,2.41-1.02c0.66-0.68,0.99-1.51,0.99-2.49c0-0.96-0.33-1.79-0.99-2.48c-0.66-0.69-1.46-1.03-2.41-1.03h-6.39
				v7.02H754.9z"/>
			<path fill="#FFFFFF" d="M769.19,320.56c-1.74,0-3.23-0.41-4.48-1.24c-1.24-0.83-2.11-1.96-2.6-3.42l1.63-0.95
				c0.34,1.18,0.98,2.1,1.9,2.76c0.93,0.66,2.11,0.99,3.57,0.99c1.41,0,2.52-0.31,3.31-0.94c0.79-0.63,1.18-1.46,1.18-2.49
				c0-1-0.36-1.75-1.09-2.26c-0.73-0.51-1.92-1.03-3.59-1.58c-1.98-0.65-3.28-1.18-3.92-1.58c-1.45-0.87-2.18-2.13-2.18-3.78
				c0-1.61,0.56-2.89,1.69-3.82c1.12-0.93,2.51-1.4,4.16-1.4c1.49,0,2.78,0.39,3.86,1.16c1.09,0.77,1.9,1.75,2.42,2.95l-1.61,0.9
				c-0.87-2.1-2.43-3.16-4.68-3.16c-1.18,0-2.13,0.29-2.86,0.87c-0.73,0.58-1.09,1.39-1.09,2.42c0,0.94,0.33,1.65,0.98,2.12
				c0.65,0.47,1.73,0.95,3.24,1.44c0.69,0.24,1.18,0.4,1.48,0.5c0.3,0.1,0.73,0.26,1.31,0.49c0.57,0.23,0.99,0.43,1.27,0.6
				s0.6,0.41,0.99,0.71c0.39,0.3,0.67,0.6,0.84,0.9c0.17,0.3,0.33,0.66,0.46,1.09s0.2,0.88,0.2,1.37c0,1.61-0.59,2.91-1.77,3.88
				C772.66,320.08,771.11,320.56,769.19,320.56z"/>
		</g>
	</g>
</g>
</svg>
