<?xml version="1.0" encoding="utf-8"?>
<!-- Generator: Adobe Illustrator 27.6.1, SVG Export Plug-In . SVG Version: 6.00 Build 0)  -->
<svg version="1.1" id="Capa_1" xmlns="http://www.w3.org/2000/svg" xmlns:xlink="http://www.w3.org/1999/xlink" x="0px" y="0px"
	 viewBox="0 0 1080 540" enable-background="new 0 0 1080 540" xml:space="preserve">
<g>
	<g>
		<path fill="#FFFFFF" d="M455.6,294.44l-10.53-17.99h-11.09v17.99h-6.24v-46.99h18.8c4.03,0,7.47,1.42,10.34,4.26
			c2.86,2.84,4.3,6.28,4.3,10.31c0,3.04-0.91,5.82-2.72,8.32c-1.81,2.51-4.15,4.27-7.02,5.3l11.08,18.8H455.6z M433.98,253.28v17.52
			h12.55c2.33,0,4.31-0.86,5.94-2.58c1.63-1.72,2.45-3.79,2.45-6.21c0-2.42-0.82-4.48-2.45-6.18c-1.63-1.7-3.61-2.55-5.94-2.55
			H433.98z"/>
		<path fill="#FFFFFF" d="M494.45,290.14c-3.32,3.31-7.36,4.96-12.12,4.96c-4.76,0-8.8-1.65-12.1-4.96
			c-3.31-3.3-4.96-7.35-4.96-12.15c0-4.79,1.65-8.84,4.96-12.15c3.3-3.31,7.34-4.96,12.1-4.96c4.76,0,8.8,1.65,12.12,4.96
			c3.32,3.31,4.98,7.35,4.98,12.15C499.44,282.78,497.78,286.83,494.45,290.14z M474.76,285.72c2.04,2.02,4.56,3.03,7.57,3.03
			c3.01,0,5.53-1.01,7.57-3.03c2.04-2.02,3.05-4.6,3.05-7.73c0-3.13-1.02-5.72-3.05-7.75c-2.04-2.04-4.56-3.05-7.57-3.05
			c-3.01,0-5.53,1.02-7.57,3.05c-2.04,2.04-3.05,4.62-3.05,7.75C471.71,281.12,472.73,283.7,474.76,285.72z"/>
		<path fill="#FFFFFF" d="M510.95,288.23h12.55v6.2h-19.03v-32.9h6.49V288.23z"/>
		<path fill="#FFFFFF" d="M534.12,288.23h12.55v6.2h-19.03v-32.9h6.49V288.23z"/>
		<path fill="#FFFFFF" d="M550.8,261.54h6.48v32.9h-6.48V261.54z"/>
		<path fill="#FFFFFF" d="M582.89,261.54h6.48v32.9h-4.93l-14.1-20.11v20.11h-6.49v-32.9h4.93l14.1,20.04V261.54z"/>
		<path fill="#FFFFFF" d="M628.24,276.77v2.54c0,4.7-1.5,8.51-4.51,11.42c-3.01,2.91-6.89,4.37-11.65,4.37
			c-5.08,0-9.28-1.65-12.62-4.96c-3.34-3.3-5-7.34-5-12.1c0-4.79,1.65-8.85,4.96-12.17c3.3-3.32,7.4-4.98,12.29-4.98
			c3.07,0,5.87,0.7,8.41,2.09c2.54,1.39,4.51,3.25,5.92,5.57l-5.55,3.2c-0.78-1.35-1.97-2.44-3.55-3.29
			c-1.58-0.85-3.34-1.27-5.29-1.27c-3.13,0-5.71,1.03-7.73,3.08c-2.02,2.05-3.03,4.64-3.03,7.78c0,3.1,1.03,5.66,3.08,7.68
			c2.05,2.02,4.77,3.03,8.15,3.03c2.51,0,4.58-0.56,6.23-1.67c1.64-1.11,2.76-2.64,3.36-4.58h-9.96v-5.73H628.24z"/>
		<path fill="#FFFFFF" d="M657.39,295.31c-7.12,0-12.99-2.35-17.62-7.05c-4.63-4.7-6.95-10.47-6.95-17.32
			c0-6.85,2.32-12.62,6.95-17.32c4.63-4.7,10.51-7.05,17.62-7.05c4.3,0,8.25,1.03,11.85,3.09c3.6,2.06,6.41,4.83,8.43,8.32
			l-5.44,3.16c-1.34-2.59-3.35-4.67-6.01-6.21c-2.66-1.54-5.61-2.32-8.83-2.32c-5.42,0-9.84,1.75-13.26,5.24
			c-3.42,3.49-5.14,7.85-5.14,13.09c0,5.19,1.71,9.53,5.14,13.02c3.42,3.49,7.84,5.24,13.26,5.24c3.22,0,6.16-0.77,8.83-2.32
			c2.66-1.54,4.67-3.59,6.01-6.14l5.44,3.09c-1.97,3.49-4.77,6.28-8.39,8.36C665.64,294.27,661.68,295.31,657.39,295.31z"/>
		<path fill="#FFFFFF" d="M711.28,290.14c-3.32,3.31-7.36,4.96-12.12,4.96c-4.76,0-8.8-1.65-12.1-4.96
			c-3.31-3.3-4.96-7.35-4.96-12.15c0-4.79,1.65-8.84,4.96-12.15c3.3-3.31,7.34-4.96,12.1-4.96c4.76,0,8.8,1.65,12.12,4.96
			c3.32,3.31,4.98,7.35,4.98,12.15C716.26,282.78,714.6,286.83,711.28,290.14z M691.59,285.72c2.04,2.02,4.56,3.03,7.57,3.03
			s5.53-1.01,7.57-3.03c2.04-2.02,3.05-4.6,3.05-7.73c0-3.13-1.02-5.72-3.05-7.75c-2.04-2.04-4.56-3.05-7.57-3.05
			s-5.53,1.02-7.57,3.05c-2.04,2.04-3.05,4.62-3.05,7.75C688.53,281.12,689.55,283.7,691.59,285.72z"/>
		<path fill="#FFFFFF" d="M734.35,261.54c4.51,0,8.28,1.58,11.3,4.75c3.02,3.16,4.53,7.07,4.53,11.7c0,4.64-1.51,8.54-4.53,11.7
			c-3.02,3.16-6.79,4.75-11.3,4.75h-13.06v-32.9H734.35z M734.35,288.23c2.85,0,5.17-0.95,6.96-2.84c1.79-1.9,2.68-4.36,2.68-7.4
			c0-3.04-0.89-5.51-2.68-7.4c-1.79-1.9-4.1-2.84-6.96-2.84h-6.58v20.49H734.35z"/>
		<path fill="#FFFFFF" d="M761.75,288.23h13.86v6.2h-20.35v-32.9h20.11v6.2h-13.63v7h12.45v6.11h-12.45V288.23z"/>
	</g>
	<g>
		<g>
			<g>
				<polygon fill="#FFFFFF" points="349.81,251.28 318.28,265.94 318.28,265.95 318.28,275.93 318.28,275.94 349.81,290.6 
					349.81,280.6 329.01,270.94 349.81,261.28 				"/>
				<polygon fill="#FFFFFF" points="360.17,251.28 360.17,261.28 380.96,270.94 360.17,280.6 360.17,290.6 391.7,275.94 
					391.7,275.93 391.7,265.95 391.7,265.94 				"/>
			</g>
		</g>
		<path fill="#FFFFFF" d="M354.99,226.26c24.68,0,44.68,20,44.68,44.68s-20,44.68-44.68,44.68c-24.68,0-44.68-20-44.68-44.68
			S330.31,226.26,354.99,226.26 M354.99,220.34c-27.9,0-50.6,22.7-50.6,50.6c0,27.9,22.7,50.6,50.6,50.6s50.6-22.7,50.6-50.6
			C405.59,243.04,382.89,220.34,354.99,220.34L354.99,220.34z"/>
	</g>
	<g>
		<path fill="#FFFFFF" d="M690.95,321.17c-1.71,0-3.18-0.41-4.4-1.22c-1.22-0.81-2.07-1.93-2.55-3.36l1.6-0.94
			c0.34,1.16,0.96,2.06,1.87,2.72c0.91,0.65,2.08,0.98,3.5,0.98c1.39,0,2.47-0.31,3.25-0.92c0.78-0.62,1.16-1.43,1.16-2.45
			c0-0.98-0.36-1.72-1.07-2.22c-0.71-0.5-1.89-1.02-3.53-1.55c-1.94-0.64-3.23-1.16-3.85-1.55c-1.43-0.86-2.14-2.1-2.14-3.72
			c0-1.59,0.55-2.84,1.66-3.76c1.11-0.92,2.47-1.38,4.09-1.38c1.46,0,2.73,0.38,3.8,1.14c1.07,0.76,1.86,1.73,2.38,2.9l-1.58,0.88
			c-0.86-2.07-2.39-3.1-4.6-3.1c-1.16,0-2.1,0.29-2.81,0.86c-0.71,0.57-1.07,1.36-1.07,2.38c0,0.93,0.32,1.62,0.96,2.09
			c0.64,0.46,1.7,0.94,3.18,1.42c0.68,0.23,1.16,0.4,1.46,0.49c0.29,0.1,0.72,0.26,1.28,0.48c0.56,0.22,0.98,0.42,1.24,0.59
			c0.27,0.17,0.59,0.4,0.98,0.7c0.38,0.29,0.66,0.59,0.83,0.88c0.17,0.29,0.32,0.65,0.45,1.07c0.13,0.42,0.2,0.87,0.2,1.35
			c0,1.59-0.58,2.86-1.74,3.81C694.36,320.69,692.84,321.17,690.95,321.17z"/>
		<path fill="#FFFFFF" d="M711.57,302.12v1.77h-5.75v16.96h-1.87v-16.96h-5.75v-1.77H711.57z"/>
		<path fill="#FFFFFF" d="M725.96,319.35c-1.28,1.21-2.96,1.82-5.03,1.82c-2.07,0-3.75-0.61-5.03-1.82
			c-1.28-1.21-1.93-2.84-1.93-4.87v-12.36h1.87v12.36c0,1.5,0.45,2.68,1.34,3.56c0.89,0.87,2.14,1.31,3.75,1.31
			c1.6,0,2.85-0.44,3.75-1.31c0.89-0.87,1.34-2.06,1.34-3.56v-12.36h1.87v12.36C727.89,316.51,727.25,318.14,725.96,319.35z"/>
		<path fill="#FFFFFF" d="M739.12,302.12c2.55,0,4.66,0.91,6.33,2.72c1.67,1.81,2.5,4.03,2.5,6.65c0,2.62-0.83,4.84-2.5,6.65
			c-1.67,1.81-3.78,2.72-6.33,2.72h-7.22v-18.73H739.12z M739.12,319.08c2.05,0,3.73-0.73,5.04-2.19c1.31-1.46,1.97-3.26,1.97-5.4
			c0-2.14-0.66-3.94-1.97-5.4c-1.31-1.46-2.99-2.19-5.04-2.19h-5.35v15.19H739.12z"/>
		<path fill="#FFFFFF" d="M751.16,302.12h1.87v18.73h-1.87V302.12z"/>
		<path fill="#FFFFFF" d="M772.8,318.34c-1.87,1.88-4.16,2.82-6.88,2.82c-2.71,0-5-0.94-6.88-2.82c-1.87-1.88-2.81-4.17-2.81-6.86
			c0-2.69,0.94-4.98,2.81-6.86c1.87-1.88,4.16-2.82,6.88-2.82c2.71,0,5,0.94,6.88,2.82c1.87,1.88,2.81,4.17,2.81,6.86
			C775.61,314.18,774.68,316.46,772.8,318.34z M760.36,317.06c1.5,1.52,3.35,2.29,5.56,2.29c2.21,0,4.07-0.76,5.56-2.29
			c1.5-1.52,2.25-3.38,2.25-5.58c0-2.19-0.75-4.05-2.25-5.58c-1.5-1.53-3.35-2.29-5.56-2.29c-2.21,0-4.07,0.76-5.56,2.29
			c-1.5,1.52-2.25,3.38-2.25,5.58C758.12,313.68,758.87,315.54,760.36,317.06z"/>
	</g>
</g>
</svg>
