<?xml version="1.0" encoding="utf-8"?>
<!-- Generator: Adobe Illustrator 27.6.1, SVG Export Plug-In . SVG Version: 6.00 Build 0)  -->
<svg version="1.1" id="Capa_1" xmlns="http://www.w3.org/2000/svg" xmlns:xlink="http://www.w3.org/1999/xlink" x="0px" y="0px"
	 viewBox="0 0 540 540" enable-background="new 0 0 540 540" xml:space="preserve">
<g>
	<g>
		<g>
			<polygon fill="#FFFFFF" points="253.21,206.3 151.03,253.79 151.03,253.83 151.03,286.17 151.03,286.21 253.21,333.7 
				253.21,301.32 185.82,270 253.21,238.68 			"/>
			<polygon fill="#FFFFFF" points="286.79,206.3 286.79,238.68 354.18,270 286.79,301.32 286.79,333.7 388.97,286.21 388.97,286.17 
				388.97,253.83 388.97,253.79 			"/>
		</g>
	</g>
	<path fill="#FFFFFF" d="M270,125.19c79.97,0,144.81,64.83,144.81,144.81S349.97,414.81,270,414.81
		c-79.97,0-144.81-64.83-144.81-144.81S190.03,125.19,270,125.19 M270,106c-90.43,0-164,73.57-164,164s73.57,164,164,164
		s164-73.57,164-164S360.43,106,270,106L270,106z"/>
</g>
</svg>
