<?xml version="1.0" encoding="utf-8"?>
<!-- Generator: Adobe Illustrator 27.6.1, SVG Export Plug-In . SVG Version: 6.00 Build 0)  -->
<svg version="1.1" id="Capa_1" xmlns="http://www.w3.org/2000/svg" xmlns:xlink="http://www.w3.org/1999/xlink" x="0px" y="0px"
	 viewBox="0 0 1080 540" enable-background="new 0 0 1080 540" xml:space="preserve">
<g>
	<g>
		<g>
			<g>
				<polygon fill="#070606" points="343.05,250.71 312.11,265.09 312.11,265.1 312.11,274.9 312.11,274.91 343.05,289.29 
					343.05,279.48 322.64,270 343.05,260.51 				"/>
				<polygon fill="#070606" points="353.22,250.71 353.22,260.51 373.62,270 353.22,279.48 353.22,289.29 384.16,274.91 
					384.16,274.9 384.16,265.1 384.16,265.09 				"/>
			</g>
		</g>
		<path fill="#070606" d="M348.13,226.15c24.22,0,43.85,19.63,43.85,43.85s-19.63,43.85-43.85,43.85
			c-24.22,0-43.85-19.63-43.85-43.85S323.92,226.15,348.13,226.15 M348.13,220.34c-27.38,0-49.66,22.28-49.66,49.66
			s22.28,49.66,49.66,49.66c27.38,0,49.66-22.28,49.66-49.66S375.52,220.34,348.13,220.34L348.13,220.34z"/>
	</g>
	<g>
		<path d="M444.17,291.3l-11.1-18.97h-11.69v18.97h-6.58v-49.54h19.82c4.25,0,7.88,1.5,10.9,4.49c3.02,3,4.53,6.62,4.53,10.86
			c0,3.21-0.96,6.13-2.87,8.78c-1.91,2.64-4.38,4.51-7.4,5.59l11.68,19.82H444.17z M421.38,247.92v18.47h13.23
			c2.45,0,4.54-0.91,6.26-2.72c1.72-1.82,2.58-4,2.58-6.55c0-2.55-0.86-4.72-2.58-6.51c-1.72-1.79-3.81-2.69-6.26-2.69H421.38z"/>
		<path d="M485.13,286.77c-3.5,3.48-7.76,5.23-12.78,5.23c-5.02,0-9.27-1.74-12.76-5.23c-3.48-3.48-5.23-7.75-5.23-12.81
			c0-5.05,1.74-9.32,5.23-12.81c3.48-3.48,7.74-5.23,12.76-5.23c5.02,0,9.28,1.74,12.78,5.23c3.5,3.48,5.25,7.75,5.25,12.81
			C490.38,279.02,488.63,283.29,485.13,286.77z M464.37,282.11c2.15,2.13,4.81,3.2,7.98,3.2s5.83-1.07,7.98-3.2
			c2.15-2.13,3.22-4.85,3.22-8.15c0-3.3-1.07-6.03-3.22-8.17c-2.15-2.15-4.81-3.22-7.98-3.22s-5.83,1.07-7.98,3.22
			c-2.15,2.15-3.22,4.87-3.22,8.17C461.15,277.27,462.22,279.98,464.37,282.11z"/>
		<path d="M502.52,284.76h13.23v6.54h-20.06v-34.68h6.84V284.76z"/>
		<path d="M526.94,284.76h13.23v6.54H520.1v-34.68h6.84V284.76z"/>
		<path d="M544.53,256.62h6.84v34.68h-6.84V256.62z"/>
		<path d="M578.36,256.62h6.84v34.68H580l-14.86-21.2v21.2h-6.84v-34.68h5.2l14.87,21.13V256.62z"/>
		<path d="M626.17,272.67v2.68c0,4.95-1.59,8.97-4.76,12.04c-3.17,3.07-7.27,4.61-12.29,4.61c-5.35,0-9.78-1.74-13.3-5.23
			c-3.52-3.48-5.28-7.74-5.28-12.76c0-5.05,1.74-9.33,5.23-12.83c3.48-3.5,7.8-5.25,12.95-5.25c3.24,0,6.19,0.74,8.87,2.2
			c2.68,1.47,4.76,3.43,6.24,5.87l-5.85,3.37c-0.83-1.42-2.07-2.58-3.74-3.47c-1.67-0.89-3.53-1.34-5.57-1.34
			c-3.3,0-6.02,1.08-8.15,3.24c-2.13,2.16-3.2,4.9-3.2,8.2c0,3.27,1.08,5.97,3.24,8.1c2.16,2.13,5.03,3.2,8.6,3.2
			c2.64,0,4.83-0.59,6.56-1.76c1.73-1.17,2.91-2.78,3.54-4.83h-10.5v-6.04H626.17z"/>
		<path d="M656.89,292.22c-7.5,0-13.69-2.48-18.58-7.43c-4.88-4.95-7.33-11.04-7.33-18.26c0-7.22,2.44-13.31,7.33-18.26
			c4.88-4.95,11.08-7.43,18.58-7.43c4.53,0,8.69,1.09,12.49,3.26c3.8,2.17,6.76,5.1,8.88,8.78l-5.73,3.33
			c-1.42-2.74-3.53-4.92-6.33-6.55c-2.81-1.63-5.91-2.44-9.31-2.44c-5.71,0-10.37,1.84-13.98,5.52c-3.61,3.68-5.41,8.28-5.41,13.8
			c0,5.47,1.8,10.05,5.41,13.73c3.61,3.68,8.27,5.52,13.98,5.52c3.4,0,6.5-0.81,9.31-2.44c2.81-1.63,4.92-3.79,6.33-6.48l5.73,3.26
			c-2.08,3.68-5.02,6.62-8.85,8.81C665.6,291.13,661.42,292.22,656.89,292.22z"/>
		<path d="M713.71,286.77c-3.5,3.48-7.76,5.23-12.78,5.23c-5.02,0-9.27-1.74-12.76-5.23c-3.48-3.48-5.23-7.75-5.23-12.81
			c0-5.05,1.74-9.32,5.23-12.81c3.48-3.48,7.74-5.23,12.76-5.23c5.02,0,9.28,1.74,12.78,5.23c3.5,3.48,5.25,7.75,5.25,12.81
			C718.96,279.02,717.21,283.29,713.71,286.77z M692.95,282.11c2.15,2.13,4.81,3.2,7.98,3.2s5.83-1.07,7.98-3.2
			c2.15-2.13,3.22-4.85,3.22-8.15c0-3.3-1.07-6.03-3.22-8.17c-2.15-2.15-4.81-3.22-7.98-3.22s-5.83,1.07-7.98,3.22
			c-2.15,2.15-3.22,4.87-3.22,8.17C689.73,277.27,690.8,279.98,692.95,282.11z"/>
		<path d="M738.03,256.62c4.76,0,8.73,1.67,11.91,5c3.19,3.34,4.78,7.45,4.78,12.34c0,4.89-1.59,9-4.78,12.34
			c-3.19,3.34-7.16,5-11.91,5h-13.77v-34.68H738.03z M738.03,284.76c3.01,0,5.45-1,7.33-3c1.88-2,2.82-4.6,2.82-7.8
			c0-3.2-0.94-5.8-2.82-7.8c-1.88-2-4.33-3-7.33-3h-6.94v21.6H738.03z"/>
		<path d="M766.91,284.76h14.61v6.54h-21.45v-34.68h21.2v6.54h-14.37v7.38h13.13v6.44h-13.13V284.76z"/>
	</g>
</g>
</svg>
